<?xml version="1.0" standalone="no"?>
<!DOCTYPE svg PUBLIC "-//W3C//DTD SVG 20010904//EN"
 "http://www.w3.org/TR/2001/REC-SVG-20010904/DTD/svg10.dtd">
<svg version="1.0" xmlns="http://www.w3.org/2000/svg"
 width="512.000000pt" height="512.000000pt" viewBox="0 0 512.000000 512.000000"
 preserveAspectRatio="xMidYMid meet">
<metadata>
Created by potrace 1.14, written by Peter Selinger 2001-2017
</metadata>
<g transform="translate(0.000000,512.000000) scale(0.100000,-0.100000)"
fill="#000000" stroke="none">
<path d="M167 5103 c-66 -22 -128 -86 -150 -153 -16 -48 -17 -224 -17 -2390 0
-2630 -7 -2401 76 -2484 83 -83 -146 -76 2484 -76 2629 0 2404 -7 2485 75 82
81 75 -144 75 2485 0 2629 7 2404 -75 2485 -81 82 144 75 -2489 74 -2127 0
-2345 -2 -2389 -16z m2884 -1779 c22 -20 37 -70 49 -163 11 -92 50 -292 61
-312 4 -9 15 -52 24 -95 9 -44 23 -93 31 -111 7 -17 14 -39 14 -49 0 -26 28
-117 68 -223 19 -52 45 -132 56 -178 12 -46 26 -85 31 -86 10 -2 54 97 85 193
10 30 32 91 50 135 17 44 44 130 60 190 62 238 91 342 104 380 7 22 23 72 36
110 33 104 62 178 78 196 19 25 57 28 121 13 31 -7 132 -19 226 -26 164 -12
170 -13 202 -41 45 -40 43 -63 -18 -198 -77 -173 -195 -481 -259 -679 -16 -47
-40 -112 -55 -145 -15 -33 -38 -91 -52 -129 -14 -38 -45 -112 -70 -164 -25
-53 -57 -127 -73 -166 -15 -39 -40 -97 -54 -128 -14 -31 -26 -63 -27 -70 0 -7
-10 -33 -22 -58 l-22 -45 -210 -7 c-116 -3 -242 -9 -282 -12 l-72 -6 -24 33
c-14 17 -28 43 -32 57 -4 14 -33 79 -65 145 -31 66 -65 145 -75 175 -24 75
-108 283 -139 347 -14 29 -26 56 -26 60 0 4 -9 30 -20 58 -10 27 -39 114 -64
191 -37 117 -104 290 -146 379 -5 11 -21 53 -35 93 -15 40 -37 89 -51 109 -38
57 -51 110 -33 141 17 30 35 36 154 52 50 6 155 22 235 35 157 26 211 26 241
-1z m-920 -10 c30 -27 38 -46 69 -158 15 -56 46 -155 69 -220 23 -66 41 -131
39 -145 l-3 -26 -150 3 c-136 3 -251 -4 -420 -26 -61 -8 -162 -53 -222 -98
-51 -39 -81 -84 -113 -175 -37 -101 -46 -178 -30 -239 28 -107 112 -237 186
-287 96 -66 147 -86 225 -91 l77 -4 7 41 c9 54 -1 172 -27 331 -23 138 -24
169 -5 186 8 8 90 14 261 17 l248 6 24 -24 c29 -29 29 -42 8 -265 -19 -205
-20 -329 -4 -445 6 -49 10 -110 8 -135 -3 -43 -4 -45 -48 -58 -34 -10 -86 -12
-210 -8 -132 4 -178 2 -230 -11 -43 -10 -112 -16 -205 -17 -167 0 -267 21
-399 85 -72 35 -99 56 -178 137 -98 101 -175 223 -204 322 -40 140 -59 389
-39 509 35 200 110 347 259 508 114 123 342 243 536 283 30 6 71 15 90 19 19
4 108 7 198 6 143 -2 165 -5 183 -21z"/>
</g>
</svg>
